<?xml version="1.0" encoding="UTF-8"?>
<svg width="150px" height="44px" viewBox="0 0 150 44" version="1.1" xmlns="http://www.w3.org/2000/svg" xmlns:xlink="http://www.w3.org/1999/xlink">
    <!-- Generator: Sketch 49.3 (51167) - http://www.bohemiancoding.com/sketch -->
    <title>Logo</title>
    <desc>Created with Sketch.</desc>
    <defs></defs>
    <g id="Landing-Page" stroke="none" stroke-width="1" fill="none" fill-rule="evenodd">
        <g id="Desktop-HD-Copy" transform="translate(-201.000000, -40.000000)" fill="#FFFFFF" fill-rule="nonzero">
            <g id="Accroche" transform="translate(201.000000, 40.000000)">
                <g id="Logo">
                    <g id="line1_1_">
                        <path d="M28.7373737,28.2418605 C28.7373737,19.1348837 22.9292929,12.8418605 14.4949495,12.8418605 C6.06060606,12.8418605 0.252525253,19.1860465 0.252525253,28.2418605 C0.252525253,37.2465116 6.06060606,43.5906977 14.4949495,43.5906977 C22.9292929,43.5906977 28.7373737,37.2976744 28.7373737,28.2418605 Z M20.7070707,28.2418605 C20.7070707,33.1023256 18.4848485,36.6837209 14.4444444,36.6837209 C10.4040404,36.6837209 8.18181818,33.1023256 8.18181818,28.2418605 C8.18181818,23.2790698 10.4040404,19.7488372 14.4444444,19.7488372 C18.4848485,19.7488372 20.7070707,23.3302326 20.7070707,28.2418605 Z" id="Shape"></path>
                        <path d="M32.3232323,42.9255814 L40.4040404,42.9255814 L40.4040404,24.3023256 C41.0606061,21.744186 43.1818182,20.2093023 45.6565657,20.2093023 C48.8383838,20.2093023 50.4040404,22.3069767 50.4040404,25.427907 L50.4040404,42.9767442 L58.4848485,42.9767442 L58.4848485,23.6883721 C58.4848485,17.1395349 54.7979798,12.7906977 48.1818182,12.7906977 C44.7979798,12.7906977 41.9191919,14.3255814 40.3535354,16.1674419 L40.3535354,13.455814 L32.2727273,13.455814 L32.2727273,42.9255814 L32.3232323,42.9255814 Z" id="Shape"></path>
                        <path d="M71.6666667,13.5069767 L63.5858586,13.5069767 L63.5858586,42.9767442 L71.6666667,42.9767442 L71.6666667,13.5069767 Z M72.3737374,4.9627907 C72.3737374,2.25116279 70.1515152,0.306976744 67.6262626,0.306976744 C65,0.306976744 62.8282828,2.30232558 62.8282828,4.9627907 C62.8282828,7.7255814 65.0505051,9.61860465 67.6262626,9.61860465 C70.2020202,9.66976744 72.3737374,7.77674419 72.3737374,4.9627907 Z" id="Shape"></path>
                        <path d="M94.7979798,13.3534884 C94.3434343,13.0976744 93.1313131,12.8418605 91.7171717,12.8418605 C88.8383838,12.8418605 86.4646465,14.2744186 85.2020202,16.4232558 L85.2020202,13.5069767 L77.1212121,13.5069767 L77.1212121,42.9767442 L85.2020202,42.9767442 L85.2020202,24.7116279 C85.8080808,22 87.979798,20.5674419 90.7070707,20.5674419 C92.2222222,20.5674419 93.6363636,20.8744186 94.7474747,21.5395349 L94.7474747,13.3534884 L94.7979798,13.3534884 Z" id="Shape"></path>
                        <path d="M125.10101,28.2418605 C125.10101,19.1348837 119.292929,12.8418605 110.858586,12.8418605 C102.424242,12.8418605 96.6161616,19.1860465 96.6161616,28.2418605 C96.6161616,37.2465116 102.424242,43.5906977 110.858586,43.5906977 C119.292929,43.5906977 125.10101,37.2976744 125.10101,28.2418605 Z M117.121212,28.2418605 C117.121212,33.1023256 114.89899,36.6837209 110.858586,36.6837209 C106.818182,36.6837209 104.59596,33.1023256 104.59596,28.2418605 C104.59596,23.2790698 106.818182,19.7488372 110.858586,19.7488372 C114.89899,19.7488372 117.121212,23.3302326 117.121212,28.2418605 Z" id="Shape"></path>
                        <path d="M127.474747,40.6232558 C129.949495,42.5162791 133.939394,43.5906977 137.777778,43.5906977 C144.59596,43.5906977 149.747475,40.4186047 149.747475,34.4837209 C149.747475,29.7255814 147.222222,27.1162791 141.666667,25.5302326 L138.383838,24.5581395 C136.363636,23.8930233 135.252525,23.3813953 135.252525,21.7953488 C135.252525,20.1581395 136.919192,19.2883721 139.141414,19.2883721 C142.474747,19.2883721 145.454545,20.8232558 148.030303,22.9209302 L148.030303,15.4511628 C145.40404,13.7627907 142.424242,12.7906977 138.737374,12.7906977 C132.222222,12.7906977 127.373737,16.2697674 127.373737,22 C127.373737,27.0651163 130.555556,29.5209302 135.656566,30.9023256 L138.434343,31.6697674 C140.454545,32.3348837 141.767677,32.8976744 141.767677,34.5860465 C141.767677,36.3767442 139.89899,37.0930233 137.474747,37.0930233 C134.292929,37.0930233 130.252525,35.5581395 127.474747,33 L127.474747,40.6232558 Z" id="Shape"></path>
                    </g>
                </g>
            </g>
        </g>
    </g>
</svg>